<svg xmlns="http://www.w3.org/2000/svg" viewBox="0 0 512 512" role="img" aria-labelledby="tailwindTitle">
  <title id="tailwindTitle">Tailwind CSS badge</title>
  <rect width="512" height="512" rx="64" fill="#082f49" />
  <path fill="#22d3ee" d="M256 146c-57 0-92 28-105 84 19-28 41-39 66-33 14 3 24 13 35 24 18 17 38 37 81 37 57 0 92-28 105-84-19 28-41 39-66 33-14-3-24-13-35-24-18-17-38-37-81-37Zm-105 108c-57 0-92 28-105 84 19-28 41-39 66-33 14 3 24 13 35 24 18 17 38 37 81 37 57 0 92-28 105-84-19 28-41 39-66 33-14-3-24-13-35-24-18-17-38-37-81-37Z"/>
</svg>